<?xml version="1.0" encoding="utf-8" standalone="no"?>
<!DOCTYPE svg PUBLIC "-//W3C//DTD SVG 1.1//EN"
  "http://www.w3.org/Graphics/SVG/1.1/DTD/svg11.dtd">
<svg height="288pt" version="1.1" viewBox="0 0 432 288" width="432pt" xmlns="http://www.w3.org/2000/svg" xmlns:xlink="http://www.w3.org/1999/xlink">
 <metadata>
  <rdf:RDF xmlns:cc="http://creativecommons.org/ns#" xmlns:dc="http://purl.org/dc/elements/1.1/" xmlns:rdf="http://www.w3.org/1999/02/22-rdf-syntax-ns#">
   <cc:Work>
    <dc:type rdf:resource="http://purl.org/dc/dcmitype/StillImage"/>
    <dc:date>2022-01-05T10:06:57.135250</dc:date>
    <dc:format>image/svg+xml</dc:format>
    <dc:creator>
     <cc:Agent>
      <dc:title>Matplotlib v3.4.3, https://matplotlib.org/</dc:title>
     </cc:Agent>
    </dc:creator>
   </cc:Work>
  </rdf:RDF>
 </metadata>
 <defs>
  <style type="text/css">*{stroke-linecap:butt;stroke-linejoin:round;}</style>
 </defs>
 <g id="figure_1">
  <g id="patch_1">
   <path d="M 0 288 
L 432 288 
L 432 0 
L 0 0 
z
" style="fill:none;"/>
  </g>
  <g id="axes_1">
   <g id="patch_2">
    <path d="M 54 252 
L 206.181818 252 
L 206.181818 34.56 
L 54 34.56 
z
" style="fill:#ffffff;"/>
   </g>
   <g id="PathCollection_1">
    <defs>
     <path d="M 0 3 
C 0.795609 3 1.55874 2.683901 2.12132 2.12132 
C 2.683901 1.55874 3 0.795609 3 0 
C 3 -0.795609 2.683901 -1.55874 2.12132 -2.12132 
C 1.55874 -2.683901 0.795609 -3 0 -3 
C -0.795609 -3 -1.55874 -2.683901 -2.12132 -2.12132 
C -2.683901 -1.55874 -3 -0.795609 -3 0 
C -3 0.795609 -2.683901 1.55874 -2.12132 2.12132 
C -1.55874 2.683901 -0.795609 3 0 3 
z
" id="m943937baa1" style="stroke:#1f77b4;"/>
    </defs>
    <g clip-path="url(#p9b76ecbe89)">
     <use style="fill:#1f77b4;stroke:#1f77b4;" x="101.25652" xlink:href="#m943937baa1" y="241.896727"/>
     <use style="fill:#1f77b4;stroke:#1f77b4;" x="81.985296" xlink:href="#m943937baa1" y="227.620364"/>
     <use style="fill:#1f77b4;stroke:#1f77b4;" x="112.906193" xlink:href="#m943937baa1" y="187.207273"/>
     <use style="fill:#1f77b4;stroke:#1f77b4;" x="120.643662" xlink:href="#m943937baa1" y="191.380364"/>
     <use style="fill:#1f77b4;stroke:#1f77b4;" x="123.280777" xlink:href="#m943937baa1" y="184.791273"/>
     <use style="fill:#1f77b4;stroke:#1f77b4;" x="125.309327" xlink:href="#m943937baa1" y="160.631273"/>
     <use style="fill:#1f77b4;stroke:#1f77b4;" x="77.435548" xlink:href="#m943937baa1" y="220.152727"/>
     <use style="fill:#1f77b4;stroke:#1f77b4;" x="129.917033" xlink:href="#m943937baa1" y="195.553455"/>
     <use style="fill:#1f77b4;stroke:#1f77b4;" x="95.60556" xlink:href="#m943937baa1" y="221.031273"/>
     <use style="fill:#1f77b4;stroke:#1f77b4;" x="94.852098" xlink:href="#m943937baa1" y="193.137455"/>
     <use style="fill:#1f77b4;stroke:#1f77b4;" x="81.782441" xlink:href="#m943937baa1" y="226.522182"/>
     <use style="fill:#1f77b4;stroke:#1f77b4;" x="154.201674" xlink:href="#m943937baa1" y="154.261818"/>
     <use style="fill:#1f77b4;stroke:#1f77b4;" x="96.706773" xlink:href="#m943937baa1" y="229.597091"/>
     <use style="fill:#1f77b4;stroke:#1f77b4;" x="105.429537" xlink:href="#m943937baa1" y="198.189091"/>
     <use style="fill:#1f77b4;stroke:#1f77b4;" x="94.996995" xlink:href="#m943937baa1" y="197.749818"/>
     <use style="fill:#1f77b4;stroke:#1f77b4;" x="114.558012" xlink:href="#m943937baa1" y="177.982545"/>
     <use style="fill:#1f77b4;stroke:#1f77b4;" x="81.956316" xlink:href="#m943937baa1" y="227.400727"/>
     <use style="fill:#1f77b4;stroke:#1f77b4;" x="99.22797" xlink:href="#m943937baa1" y="182.594909"/>
     <use style="fill:#1f77b4;stroke:#1f77b4;" x="101.198562" xlink:href="#m943937baa1" y="187.207273"/>
     <use style="fill:#1f77b4;stroke:#1f77b4;" x="111.862939" xlink:href="#m943937baa1" y="190.501818"/>
     <use style="fill:#1f77b4;stroke:#1f77b4;" x="103.951594" xlink:href="#m943937baa1" y="174.468364"/>
     <use style="fill:#1f77b4;stroke:#1f77b4;" x="110.819684" xlink:href="#m943937baa1" y="203.68"/>
     <use style="fill:#1f77b4;stroke:#1f77b4;" x="97.721048" xlink:href="#m943937baa1" y="215.101091"/>
     <use style="fill:#1f77b4;stroke:#1f77b4;" x="166.257057" xlink:href="#m943937baa1" y="97.595636"/>
     <use style="fill:#1f77b4;stroke:#1f77b4;" x="109.457658" xlink:href="#m943937baa1" y="194.235636"/>
     <use style="fill:#1f77b4;stroke:#1f77b4;" x="103.632822" xlink:href="#m943937baa1" y="212.685091"/>
     <use style="fill:#1f77b4;stroke:#1f77b4;" x="90.766019" xlink:href="#m943937baa1" y="220.152727"/>
     <use style="fill:#1f77b4;stroke:#1f77b4;" x="88.795428" xlink:href="#m943937baa1" y="220.152727"/>
     <use style="fill:#1f77b4;stroke:#1f77b4;" x="114.905764" xlink:href="#m943937baa1" y="169.636364"/>
     <use style="fill:#1f77b4;stroke:#1f77b4;" x="108.96501" xlink:href="#m943937baa1" y="198.189091"/>
     <use style="fill:#1f77b4;stroke:#1f77b4;" x="79.695932" xlink:href="#m943937baa1" y="232.232727"/>
     <use style="fill:#1f77b4;stroke:#1f77b4;" x="105.197703" xlink:href="#m943937baa1" y="209.170909"/>
     <use style="fill:#1f77b4;stroke:#1f77b4;" x="95.663518" xlink:href="#m943937baa1" y="198.189091"/>
     <use style="fill:#1f77b4;stroke:#1f77b4;" x="111.978856" xlink:href="#m943937baa1" y="210.269091"/>
     <use style="fill:#1f77b4;stroke:#1f77b4;" x="103.545884" xlink:href="#m943937baa1" y="192.258909"/>
     <use style="fill:#1f77b4;stroke:#1f77b4;" x="121.744875" xlink:href="#m943937baa1" y="185.010909"/>
     <use style="fill:#1f77b4;stroke:#1f77b4;" x="99.285929" xlink:href="#m943937baa1" y="220.152727"/>
     <use style="fill:#1f77b4;stroke:#1f77b4;" x="101.082645" xlink:href="#m943937baa1" y="196.651636"/>
     <use style="fill:#1f77b4;stroke:#1f77b4;" x="106.182999" xlink:href="#m943937baa1" y="213.344"/>
     <use style="fill:#1f77b4;stroke:#1f77b4;" x="142.63894" xlink:href="#m943937baa1" y="154.261818"/>
     <use style="fill:#1f77b4;stroke:#1f77b4;" x="98.503488" xlink:href="#m943937baa1" y="214.881455"/>
     <use style="fill:#1f77b4;stroke:#1f77b4;" x="102.618547" xlink:href="#m943937baa1" y="208.292364"/>
     <use style="fill:#1f77b4;stroke:#1f77b4;" x="92.417838" xlink:href="#m943937baa1" y="196.871273"/>
     <use style="fill:#1f77b4;stroke:#1f77b4;" x="80.072663" xlink:href="#m943937baa1" y="235.088"/>
     <use style="fill:#1f77b4;stroke:#1f77b4;" x="140.117742" xlink:href="#m943937baa1" y="141.083636"/>
     <use style="fill:#1f77b4;stroke:#1f77b4;" x="105.023827" xlink:href="#m943937baa1" y="198.189091"/>
     <use style="fill:#1f77b4;stroke:#1f77b4;" x="116.441666" xlink:href="#m943937baa1" y="154.261818"/>
     <use style="fill:#1f77b4;stroke:#1f77b4;" x="145.913599" xlink:href="#m943937baa1" y="132.298182"/>
     <use style="fill:#1f77b4;stroke:#1f77b4;" x="134.756574" xlink:href="#m943937baa1" y="219.054545"/>
     <use style="fill:#1f77b4;stroke:#1f77b4;" x="104.299345" xlink:href="#m943937baa1" y="198.189091"/>
     <use style="fill:#1f77b4;stroke:#1f77b4;" x="88.360738" xlink:href="#m943937baa1" y="209.170909"/>
     <use style="fill:#1f77b4;stroke:#1f77b4;" x="81.840399" xlink:href="#m943937baa1" y="206.974545"/>
     <use style="fill:#1f77b4;stroke:#1f77b4;" x="152.897607" xlink:href="#m943937baa1" y="149.869091"/>
     <use style="fill:#1f77b4;stroke:#1f77b4;" x="80.826124" xlink:href="#m943937baa1" y="229.816727"/>
     <use style="fill:#1f77b4;stroke:#1f77b4;" x="126.091768" xlink:href="#m943937baa1" y="168.757818"/>
     <use style="fill:#1f77b4;stroke:#1f77b4;" x="108.501342" xlink:href="#m943937baa1" y="186.987636"/>
     <use style="fill:#1f77b4;stroke:#1f77b4;" x="162.170978" xlink:href="#m943937baa1" y="198.189091"/>
     <use style="fill:#1f77b4;stroke:#1f77b4;" x="128.555007" xlink:href="#m943937baa1" y="231.134545"/>
     <use style="fill:#1f77b4;stroke:#1f77b4;" x="84.593431" xlink:href="#m943937baa1" y="225.424"/>
     <use style="fill:#1f77b4;stroke:#1f77b4;" x="191.903724" xlink:href="#m943937baa1" y="116.264727"/>
     <use style="fill:#1f77b4;stroke:#1f77b4;" x="110.819684" xlink:href="#m943937baa1" y="193.576727"/>
     <use style="fill:#1f77b4;stroke:#1f77b4;" x="92.041108" xlink:href="#m943937baa1" y="220.152727"/>
     <use style="fill:#1f77b4;stroke:#1f77b4;" x="83.955887" xlink:href="#m943937baa1" y="220.592"/>
     <use style="fill:#1f77b4;stroke:#1f77b4;" x="105.023827" xlink:href="#m943937baa1" y="181.496727"/>
     <use style="fill:#1f77b4;stroke:#1f77b4;" x="102.995277" xlink:href="#m943937baa1" y="206.096"/>
     <use style="fill:#1f77b4;stroke:#1f77b4;" x="110.211119" xlink:href="#m943937baa1" y="194.894545"/>
     <use style="fill:#1f77b4;stroke:#1f77b4;" x="99.691639" xlink:href="#m943937baa1" y="209.829818"/>
     <use style="fill:#1f77b4;stroke:#1f77b4;" x="60.917355" xlink:href="#m943937baa1" y="242.116364"/>
     <use style="fill:#1f77b4;stroke:#1f77b4;" x="110.645809" xlink:href="#m943937baa1" y="219.933091"/>
     <use style="fill:#1f77b4;stroke:#1f77b4;" x="95.518622" xlink:href="#m943937baa1" y="218.176"/>
     <use style="fill:#1f77b4;stroke:#1f77b4;" x="86.853816" xlink:href="#m943937baa1" y="220.811636"/>
     <use style="fill:#1f77b4;stroke:#1f77b4;" x="101.488355" xlink:href="#m943937baa1" y="198.189091"/>
     <use style="fill:#1f77b4;stroke:#1f77b4;" x="129.859075" xlink:href="#m943937baa1" y="195.114182"/>
     <use style="fill:#1f77b4;stroke:#1f77b4;" x="125.280348" xlink:href="#m943937baa1" y="154.261818"/>
     <use style="fill:#1f77b4;stroke:#1f77b4;" x="94.707202" xlink:href="#m943937baa1" y="215.76"/>
     <use style="fill:#1f77b4;stroke:#1f77b4;" x="82.477944" xlink:href="#m943937baa1" y="236.625455"/>
     <use style="fill:#1f77b4;stroke:#1f77b4;" x="103.951594" xlink:href="#m943937baa1" y="196.432"/>
     <use style="fill:#1f77b4;stroke:#1f77b4;" x="130.844371" xlink:href="#m943937baa1" y="176.225455"/>
     <use style="fill:#1f77b4;stroke:#1f77b4;" x="117.977568" xlink:href="#m943937baa1" y="198.189091"/>
     <use style="fill:#1f77b4;stroke:#1f77b4;" x="102.125899" xlink:href="#m943937baa1" y="204.558545"/>
     <use style="fill:#1f77b4;stroke:#1f77b4;" x="108.356445" xlink:href="#m943937baa1" y="198.189091"/>
     <use style="fill:#1f77b4;stroke:#1f77b4;" x="100.300204" xlink:href="#m943937baa1" y="189.403636"/>
     <use style="fill:#1f77b4;stroke:#1f77b4;" x="81.202855" xlink:href="#m943937baa1" y="223.886545"/>
     <use style="fill:#1f77b4;stroke:#1f77b4;" x="146.725019" xlink:href="#m943937baa1" y="154.261818"/>
     <use style="fill:#1f77b4;stroke:#1f77b4;" x="98.329613" xlink:href="#m943937baa1" y="219.493818"/>
     <use style="fill:#1f77b4;stroke:#1f77b4;" x="152.955565" xlink:href="#m943937baa1" y="150.528"/>
     <use style="fill:#1f77b4;stroke:#1f77b4;" x="89.780723" xlink:href="#m943937baa1" y="220.152727"/>
     <use style="fill:#1f77b4;stroke:#1f77b4;" x="104.994848" xlink:href="#m943937baa1" y="176.225455"/>
     <use style="fill:#1f77b4;stroke:#1f77b4;" x="123.628528" xlink:href="#m943937baa1" y="135.592727"/>
     <use style="fill:#1f77b4;stroke:#1f77b4;" x="113.340882" xlink:href="#m943937baa1" y="198.189091"/>
     <use style="fill:#1f77b4;stroke:#1f77b4;" x="135.973704" xlink:href="#m943937baa1" y="198.189091"/>
     <use style="fill:#1f77b4;stroke:#1f77b4;" x="117.195127" xlink:href="#m943937baa1" y="187.207273"/>
     <use style="fill:#1f77b4;stroke:#1f77b4;" x="68.683804" xlink:href="#m943937baa1" y="242.116364"/>
     <use style="fill:#1f77b4;stroke:#1f77b4;" x="99.314908" xlink:href="#m943937baa1" y="169.636364"/>
     <use style="fill:#1f77b4;stroke:#1f77b4;" x="117.948589" xlink:href="#m943937baa1" y="192.698182"/>
     <use style="fill:#1f77b4;stroke:#1f77b4;" x="168.430503" xlink:href="#m943937baa1" y="160.192"/>
     <use style="fill:#1f77b4;stroke:#1f77b4;" x="131.076205" xlink:href="#m943937baa1" y="176.225455"/>
     <use style="fill:#1f77b4;stroke:#1f77b4;" x="86.882795" xlink:href="#m943937baa1" y="231.134545"/>
     <use style="fill:#1f77b4;stroke:#1f77b4;" x="112.906193" xlink:href="#m943937baa1" y="198.189091"/>
     <use style="fill:#1f77b4;stroke:#1f77b4;" x="88.128904" xlink:href="#m943937baa1" y="231.134545"/>
     <use style="fill:#1f77b4;stroke:#1f77b4;" x="84.912203" xlink:href="#m943937baa1" y="209.170909"/>
     <use style="fill:#1f77b4;stroke:#1f77b4;" x="96.590855" xlink:href="#m943937baa1" y="198.189091"/>
     <use style="fill:#1f77b4;stroke:#1f77b4;" x="180.398948" xlink:href="#m943937baa1" y="209.170909"/>
     <use style="fill:#1f77b4;stroke:#1f77b4;" x="116.992272" xlink:href="#m943937baa1" y="187.646545"/>
     <use style="fill:#1f77b4;stroke:#1f77b4;" x="112.645379" xlink:href="#m943937baa1" y="174.468364"/>
     <use style="fill:#1f77b4;stroke:#1f77b4;" x="96.532897" xlink:href="#m943937baa1" y="228.059636"/>
     <use style="fill:#1f77b4;stroke:#1f77b4;" x="111.39927" xlink:href="#m943937baa1" y="174.907636"/>
     <use style="fill:#1f77b4;stroke:#1f77b4;" x="125.077493" xlink:href="#m943937baa1" y="169.856"/>
     <use style="fill:#1f77b4;stroke:#1f77b4;" x="104.878931" xlink:href="#m943937baa1" y="181.496727"/>
     <use style="fill:#1f77b4;stroke:#1f77b4;" x="93.490072" xlink:href="#m943937baa1" y="176.225455"/>
     <use style="fill:#1f77b4;stroke:#1f77b4;" x="92.591714" xlink:href="#m943937baa1" y="198.189091"/>
     <use style="fill:#1f77b4;stroke:#1f77b4;" x="73.030697" xlink:href="#m943937baa1" y="242.116364"/>
     <use style="fill:#1f77b4;stroke:#1f77b4;" x="162.344853" xlink:href="#m943937baa1" y="176.225455"/>
     <use style="fill:#1f77b4;stroke:#1f77b4;" x="121.426103" xlink:href="#m943937baa1" y="208.072727"/>
     <use style="fill:#1f77b4;stroke:#1f77b4;" x="126.526457" xlink:href="#m943937baa1" y="176.225455"/>
     <use style="fill:#1f77b4;stroke:#1f77b4;" x="102.183857" xlink:href="#m943937baa1" y="187.207273"/>
     <use style="fill:#1f77b4;stroke:#1f77b4;" x="138.755715" xlink:href="#m943937baa1" y="152.724364"/>
     <use style="fill:#1f77b4;stroke:#1f77b4;" x="82.883654" xlink:href="#m943937baa1" y="231.134545"/>
     <use style="fill:#1f77b4;stroke:#1f77b4;" x="88.041966" xlink:href="#m943937baa1" y="224.545455"/>
     <use style="fill:#1f77b4;stroke:#1f77b4;" x="121.802834" xlink:href="#m943937baa1" y="199.946182"/>
     <use style="fill:#1f77b4;stroke:#1f77b4;" x="85.897499" xlink:href="#m943937baa1" y="213.344"/>
     <use style="fill:#1f77b4;stroke:#1f77b4;" x="90.910916" xlink:href="#m943937baa1" y="227.181091"/>
     <use style="fill:#1f77b4;stroke:#1f77b4;" x="93.345175" xlink:href="#m943937baa1" y="209.170909"/>
     <use style="fill:#1f77b4;stroke:#1f77b4;" x="98.242675" xlink:href="#m943937baa1" y="220.152727"/>
     <use style="fill:#1f77b4;stroke:#1f77b4;" x="88.186863" xlink:href="#m943937baa1" y="208.731636"/>
     <use style="fill:#1f77b4;stroke:#1f77b4;" x="138.378985" xlink:href="#m943937baa1" y="171.832727"/>
     <use style="fill:#1f77b4;stroke:#1f77b4;" x="76.711066" xlink:href="#m943937baa1" y="231.573818"/>
     <use style="fill:#1f77b4;stroke:#1f77b4;" x="94.098637" xlink:href="#m943937baa1" y="220.152727"/>
     <use style="fill:#1f77b4;stroke:#1f77b4;" x="84.999141" xlink:href="#m943937baa1" y="220.152727"/>
     <use style="fill:#1f77b4;stroke:#1f77b4;" x="118.151444" xlink:href="#m943937baa1" y="216.199273"/>
     <use style="fill:#1f77b4;stroke:#1f77b4;" x="107.313191" xlink:href="#m943937baa1" y="231.134545"/>
     <use style="fill:#1f77b4;stroke:#1f77b4;" x="110.761726" xlink:href="#m943937baa1" y="201.922909"/>
     <use style="fill:#1f77b4;stroke:#1f77b4;" x="84.390576" xlink:href="#m943937baa1" y="231.134545"/>
     <use style="fill:#1f77b4;stroke:#1f77b4;" x="87.549318" xlink:href="#m943937baa1" y="220.152727"/>
     <use style="fill:#1f77b4;stroke:#1f77b4;" x="104.93689" xlink:href="#m943937baa1" y="192.698182"/>
     <use style="fill:#1f77b4;stroke:#1f77b4;" x="76.682087" xlink:href="#m943937baa1" y="236.625455"/>
     <use style="fill:#1f77b4;stroke:#1f77b4;" x="81.956316" xlink:href="#m943937baa1" y="220.152727"/>
     <use style="fill:#1f77b4;stroke:#1f77b4;" x="93.026403" xlink:href="#m943937baa1" y="220.152727"/>
     <use style="fill:#1f77b4;stroke:#1f77b4;" x="98.387571" xlink:href="#m943937baa1" y="220.152727"/>
     <use style="fill:#1f77b4;stroke:#1f77b4;" x="90.157454" xlink:href="#m943937baa1" y="203.68"/>
     <use style="fill:#1f77b4;stroke:#1f77b4;" x="102.647526" xlink:href="#m943937baa1" y="187.207273"/>
     <use style="fill:#1f77b4;stroke:#1f77b4;" x="151.419663" xlink:href="#m943937baa1" y="116.923636"/>
     <use style="fill:#1f77b4;stroke:#1f77b4;" x="171.38639" xlink:href="#m943937baa1" y="154.261818"/>
     <use style="fill:#1f77b4;stroke:#1f77b4;" x="130.409681" xlink:href="#m943937baa1" y="154.261818"/>
     <use style="fill:#1f77b4;stroke:#1f77b4;" x="99.63368" xlink:href="#m943937baa1" y="213.563636"/>
     <use style="fill:#1f77b4;stroke:#1f77b4;" x="76.218418" xlink:href="#m943937baa1" y="231.134545"/>
     <use style="fill:#1f77b4;stroke:#1f77b4;" x="106.038102" xlink:href="#m943937baa1" y="234.209455"/>
     <use style="fill:#1f77b4;stroke:#1f77b4;" x="86.419126" xlink:href="#m943937baa1" y="228.279273"/>
     <use style="fill:#1f77b4;stroke:#1f77b4;" x="80.362456" xlink:href="#m943937baa1" y="226.082909"/>
     <use style="fill:#1f77b4;stroke:#1f77b4;" x="73.784158" xlink:href="#m943937baa1" y="220.152727"/>
     <use style="fill:#1f77b4;stroke:#1f77b4;" x="92.794569" xlink:href="#m943937baa1" y="209.170909"/>
     <use style="fill:#1f77b4;stroke:#1f77b4;" x="90.070516" xlink:href="#m943937baa1" y="220.152727"/>
     <use style="fill:#1f77b4;stroke:#1f77b4;" x="102.038961" xlink:href="#m943937baa1" y="203.899636"/>
     <use style="fill:#1f77b4;stroke:#1f77b4;" x="123.16486" xlink:href="#m943937baa1" y="220.152727"/>
     <use style="fill:#1f77b4;stroke:#1f77b4;" x="109.312762" xlink:href="#m943937baa1" y="220.152727"/>
     <use style="fill:#1f77b4;stroke:#1f77b4;" x="138.523881" xlink:href="#m943937baa1" y="151.186909"/>
     <use style="fill:#1f77b4;stroke:#1f77b4;" x="191.613932" xlink:href="#m943937baa1" y="154.261818"/>
     <use style="fill:#1f77b4;stroke:#1f77b4;" x="124.468928" xlink:href="#m943937baa1" y="181.716364"/>
     <use style="fill:#1f77b4;stroke:#1f77b4;" x="90.823978" xlink:href="#m943937baa1" y="206.754909"/>
     <use style="fill:#1f77b4;stroke:#1f77b4;" x="99.807556" xlink:href="#m943937baa1" y="220.152727"/>
     <use style="fill:#1f77b4;stroke:#1f77b4;" x="114.326178" xlink:href="#m943937baa1" y="187.207273"/>
     <use style="fill:#1f77b4;stroke:#1f77b4;" x="88.70849" xlink:href="#m943937baa1" y="209.170909"/>
     <use style="fill:#1f77b4;stroke:#1f77b4;" x="98.996136" xlink:href="#m943937baa1" y="220.152727"/>
     <use style="fill:#1f77b4;stroke:#1f77b4;" x="92.041108" xlink:href="#m943937baa1" y="220.152727"/>
     <use style="fill:#1f77b4;stroke:#1f77b4;" x="102.763443" xlink:href="#m943937baa1" y="198.189091"/>
     <use style="fill:#1f77b4;stroke:#1f77b4;" x="123.077922" xlink:href="#m943937baa1" y="187.646545"/>
     <use style="fill:#1f77b4;stroke:#1f77b4;" x="112.181711" xlink:href="#m943937baa1" y="214.881455"/>
     <use style="fill:#1f77b4;stroke:#1f77b4;" x="143.914028" xlink:href="#m943937baa1" y="165.243636"/>
     <use style="fill:#1f77b4;stroke:#1f77b4;" x="82.709778" xlink:href="#m943937baa1" y="228.718545"/>
     <use style="fill:#1f77b4;stroke:#1f77b4;" x="82.825695" xlink:href="#m943937baa1" y="220.152727"/>
     <use style="fill:#1f77b4;stroke:#1f77b4;" x="199.264463" xlink:href="#m943937baa1" y="44.443636"/>
     <use style="fill:#1f77b4;stroke:#1f77b4;" x="97.836965" xlink:href="#m943937baa1" y="194.674909"/>
     <use style="fill:#1f77b4;stroke:#1f77b4;" x="73.030697" xlink:href="#m943937baa1" y="150.967273"/>
     <use style="fill:#1f77b4;stroke:#1f77b4;" x="144.319738" xlink:href="#m943937baa1" y="194.235636"/>
     <use style="fill:#1f77b4;stroke:#1f77b4;" x="100.763872" xlink:href="#m943937baa1" y="176.225455"/>
     <use style="fill:#1f77b4;stroke:#1f77b4;" x="147.362563" xlink:href="#m943937baa1" y="195.773091"/>
     <use style="fill:#1f77b4;stroke:#1f77b4;" x="103.864656" xlink:href="#m943937baa1" y="220.152727"/>
     <use style="fill:#1f77b4;stroke:#1f77b4;" x="93.98272" xlink:href="#m943937baa1" y="220.152727"/>
     <use style="fill:#1f77b4;stroke:#1f77b4;" x="79.840829" xlink:href="#m943937baa1" y="176.225455"/>
     <use style="fill:#1f77b4;stroke:#1f77b4;" x="152.375979" xlink:href="#m943937baa1" y="186.109091"/>
     <use style="fill:#1f77b4;stroke:#1f77b4;" x="152.433938" xlink:href="#m943937baa1" y="183.253818"/>
     <use style="fill:#1f77b4;stroke:#1f77b4;" x="119.629387" xlink:href="#m943937baa1" y="139.985455"/>
     <use style="fill:#1f77b4;stroke:#1f77b4;" x="183.441773" xlink:href="#m943937baa1" y="187.207273"/>
     <use style="fill:#1f77b4;stroke:#1f77b4;" x="119.165719" xlink:href="#m943937baa1" y="121.316364"/>
     <use style="fill:#1f77b4;stroke:#1f77b4;" x="169.531716" xlink:href="#m943937baa1" y="198.189091"/>
     <use style="fill:#1f77b4;stroke:#1f77b4;" x="111.978856" xlink:href="#m943937baa1" y="154.261818"/>
     <use style="fill:#1f77b4;stroke:#1f77b4;" x="112.587421" xlink:href="#m943937baa1" y="187.207273"/>
     <use style="fill:#1f77b4;stroke:#1f77b4;" x="140.291617" xlink:href="#m943937baa1" y="220.152727"/>
     <use style="fill:#1f77b4;stroke:#1f77b4;" x="104.618117" xlink:href="#m943937baa1" y="187.207273"/>
     <use style="fill:#1f77b4;stroke:#1f77b4;" x="118.962864" xlink:href="#m943937baa1" y="176.225455"/>
     <use style="fill:#1f77b4;stroke:#1f77b4;" x="97.489213" xlink:href="#m943937baa1" y="231.134545"/>
     <use style="fill:#1f77b4;stroke:#1f77b4;" x="109.428679" xlink:href="#m943937baa1" y="172.052364"/>
     <use style="fill:#1f77b4;stroke:#1f77b4;" x="134.437802" xlink:href="#m943937baa1" y="207.853091"/>
     <use style="fill:#1f77b4;stroke:#1f77b4;" x="96.880648" xlink:href="#m943937baa1" y="219.713455"/>
     <use style="fill:#1f77b4;stroke:#1f77b4;" x="100.06837" xlink:href="#m943937baa1" y="176.225455"/>
     <use style="fill:#1f77b4;stroke:#1f77b4;" x="73.929054" xlink:href="#m943937baa1" y="232.452364"/>
     <use style="fill:#1f77b4;stroke:#1f77b4;" x="81.985296" xlink:href="#m943937baa1" y="220.152727"/>
     <use style="fill:#1f77b4;stroke:#1f77b4;" x="176.950413" xlink:href="#m943937baa1" y="154.261818"/>
     <use style="fill:#1f77b4;stroke:#1f77b4;" x="89.693786" xlink:href="#m943937baa1" y="220.152727"/>
     <use style="fill:#1f77b4;stroke:#1f77b4;" x="91.171729" xlink:href="#m943937baa1" y="220.152727"/>
     <use style="fill:#1f77b4;stroke:#1f77b4;" x="106.240957" xlink:href="#m943937baa1" y="176.225455"/>
     <use style="fill:#1f77b4;stroke:#1f77b4;" x="88.940324" xlink:href="#m943937baa1" y="219.933091"/>
     <use style="fill:#1f77b4;stroke:#1f77b4;" x="89.693786" xlink:href="#m943937baa1" y="220.152727"/>
     <use style="fill:#1f77b4;stroke:#1f77b4;" x="99.546743" xlink:href="#m943937baa1" y="209.170909"/>
     <use style="fill:#1f77b4;stroke:#1f77b4;" x="111.515187" xlink:href="#m943937baa1" y="176.225455"/>
     <use style="fill:#1f77b4;stroke:#1f77b4;" x="99.749598" xlink:href="#m943937baa1" y="193.137455"/>
     <use style="fill:#1f77b4;stroke:#1f77b4;" x="129.076634" xlink:href="#m943937baa1" y="189.184"/>
     <use style="fill:#1f77b4;stroke:#1f77b4;" x="164.257486" xlink:href="#m943937baa1" y="198.189091"/>
     <use style="fill:#1f77b4;stroke:#1f77b4;" x="122.35344" xlink:href="#m943937baa1" y="219.493818"/>
     <use style="fill:#1f77b4;stroke:#1f77b4;" x="88.998283" xlink:href="#m943937baa1" y="215.101091"/>
     <use style="fill:#1f77b4;stroke:#1f77b4;" x="139.132446" xlink:href="#m943937baa1" y="220.152727"/>
     <use style="fill:#1f77b4;stroke:#1f77b4;" x="127.048084" xlink:href="#m943937baa1" y="150.747636"/>
     <use style="fill:#1f77b4;stroke:#1f77b4;" x="192.0776" xlink:href="#m943937baa1" y="66.407273"/>
     <use style="fill:#1f77b4;stroke:#1f77b4;" x="90.476226" xlink:href="#m943937baa1" y="209.170909"/>
     <use style="fill:#1f77b4;stroke:#1f77b4;" x="133.655361" xlink:href="#m943937baa1" y="121.316364"/>
     <use style="fill:#1f77b4;stroke:#1f77b4;" x="89.403993" xlink:href="#m943937baa1" y="239.92"/>
     <use style="fill:#1f77b4;stroke:#1f77b4;" x="133.597403" xlink:href="#m943937baa1" y="198.189091"/>
     <use style="fill:#1f77b4;stroke:#1f77b4;" x="85.607706" xlink:href="#m943937baa1" y="231.134545"/>
     <use style="fill:#1f77b4;stroke:#1f77b4;" x="74.450682" xlink:href="#m943937baa1" y="232.452364"/>
     <use style="fill:#1f77b4;stroke:#1f77b4;" x="139.36428" xlink:href="#m943937baa1" y="196.212364"/>
     <use style="fill:#1f77b4;stroke:#1f77b4;" x="87.259526" xlink:href="#m943937baa1" y="215.76"/>
     <use style="fill:#1f77b4;stroke:#1f77b4;" x="90.910916" xlink:href="#m943937baa1" y="187.646545"/>
     <use style="fill:#1f77b4;stroke:#1f77b4;" x="76.884942" xlink:href="#m943937baa1" y="221.909818"/>
     <use style="fill:#1f77b4;stroke:#1f77b4;" x="98.329613" xlink:href="#m943937baa1" y="198.189091"/>
     <use style="fill:#1f77b4;stroke:#1f77b4;" x="90.910916" xlink:href="#m943937baa1" y="229.377455"/>
     <use style="fill:#1f77b4;stroke:#1f77b4;" x="99.170012" xlink:href="#m943937baa1" y="209.170909"/>
     <use style="fill:#1f77b4;stroke:#1f77b4;" x="81.260814" xlink:href="#m943937baa1" y="220.152727"/>
     <use style="fill:#1f77b4;stroke:#1f77b4;" x="111.283353" xlink:href="#m943937baa1" y="198.189091"/>
     <use style="fill:#1f77b4;stroke:#1f77b4;" x="90.505206" xlink:href="#m943937baa1" y="204.338909"/>
     <use style="fill:#1f77b4;stroke:#1f77b4;" x="116.122894" xlink:href="#m943937baa1" y="200.824727"/>
     <use style="fill:#1f77b4;stroke:#1f77b4;" x="121.599979" xlink:href="#m943937baa1" y="220.152727"/>
     <use style="fill:#1f77b4;stroke:#1f77b4;" x="97.489213" xlink:href="#m943937baa1" y="198.189091"/>
     <use style="fill:#1f77b4;stroke:#1f77b4;" x="85.665665" xlink:href="#m943937baa1" y="189.623273"/>
     <use style="fill:#1f77b4;stroke:#1f77b4;" x="83.231405" xlink:href="#m943937baa1" y="231.793455"/>
     <use style="fill:#1f77b4;stroke:#1f77b4;" x="97.025545" xlink:href="#m943937baa1" y="198.189091"/>
     <use style="fill:#1f77b4;stroke:#1f77b4;" x="81.202855" xlink:href="#m943937baa1" y="236.625455"/>
     <use style="fill:#1f77b4;stroke:#1f77b4;" x="88.534614" xlink:href="#m943937baa1" y="242.116364"/>
     <use style="fill:#1f77b4;stroke:#1f77b4;" x="147.159708" xlink:href="#m943937baa1" y="238.382545"/>
     <use style="fill:#1f77b4;stroke:#1f77b4;" x="155.853494" xlink:href="#m943937baa1" y="161.509818"/>
     <use style="fill:#1f77b4;stroke:#1f77b4;" x="136.14758" xlink:href="#m943937baa1" y="134.055273"/>
     <use style="fill:#1f77b4;stroke:#1f77b4;" x="130.786412" xlink:href="#m943937baa1" y="220.152727"/>
     <use style="fill:#1f77b4;stroke:#1f77b4;" x="117.716754" xlink:href="#m943937baa1" y="220.152727"/>
     <use style="fill:#1f77b4;stroke:#1f77b4;" x="103.661801" xlink:href="#m943937baa1" y="225.643636"/>
     <use style="fill:#1f77b4;stroke:#1f77b4;" x="106.443812" xlink:href="#m943937baa1" y="198.189091"/>
    </g>
   </g>
   <g id="matplotlib.axis_1">
    <g id="xtick_1">
     <g id="line2d_1">
      <defs>
       <path d="M 0 0 
L 0 3.5 
" id="m033040539b" style="stroke:#000000;stroke-width:0.8;"/>
      </defs>
      <g>
       <use style="stroke:#000000;stroke-width:0.8;" x="109.979285" xlink:href="#m033040539b" y="252"/>
      </g>
     </g>
     <g id="text_1">
      <!-- 20 -->
      <g transform="translate(103.616785 266.598437)scale(0.1 -0.1)">
       <defs>
        <path d="M 1228 531 
L 3431 531 
L 3431 0 
L 469 0 
L 469 531 
Q 828 903 1448 1529 
Q 2069 2156 2228 2338 
Q 2531 2678 2651 2914 
Q 2772 3150 2772 3378 
Q 2772 3750 2511 3984 
Q 2250 4219 1831 4219 
Q 1534 4219 1204 4116 
Q 875 4013 500 3803 
L 500 4441 
Q 881 4594 1212 4672 
Q 1544 4750 1819 4750 
Q 2544 4750 2975 4387 
Q 3406 4025 3406 3419 
Q 3406 3131 3298 2873 
Q 3191 2616 2906 2266 
Q 2828 2175 2409 1742 
Q 1991 1309 1228 531 
z
" id="DejaVuSans-32" transform="scale(0.015625)"/>
        <path d="M 2034 4250 
Q 1547 4250 1301 3770 
Q 1056 3291 1056 2328 
Q 1056 1369 1301 889 
Q 1547 409 2034 409 
Q 2525 409 2770 889 
Q 3016 1369 3016 2328 
Q 3016 3291 2770 3770 
Q 2525 4250 2034 4250 
z
M 2034 4750 
Q 2819 4750 3233 4129 
Q 3647 3509 3647 2328 
Q 3647 1150 3233 529 
Q 2819 -91 2034 -91 
Q 1250 -91 836 529 
Q 422 1150 422 2328 
Q 422 3509 836 4129 
Q 1250 4750 2034 4750 
z
" id="DejaVuSans-30" transform="scale(0.015625)"/>
       </defs>
       <use xlink:href="#DejaVuSans-32"/>
       <use x="63.623047" xlink:href="#DejaVuSans-30"/>
      </g>
     </g>
    </g>
    <g id="xtick_2">
     <g id="line2d_2">
      <g>
       <use style="stroke:#000000;stroke-width:0.8;" x="167.937856" xlink:href="#m033040539b" y="252"/>
      </g>
     </g>
     <g id="text_2">
      <!-- 40 -->
      <g transform="translate(161.575356 266.598437)scale(0.1 -0.1)">
       <defs>
        <path d="M 2419 4116 
L 825 1625 
L 2419 1625 
L 2419 4116 
z
M 2253 4666 
L 3047 4666 
L 3047 1625 
L 3713 1625 
L 3713 1100 
L 3047 1100 
L 3047 0 
L 2419 0 
L 2419 1100 
L 313 1100 
L 313 1709 
L 2253 4666 
z
" id="DejaVuSans-34" transform="scale(0.015625)"/>
       </defs>
       <use xlink:href="#DejaVuSans-34"/>
       <use x="63.623047" xlink:href="#DejaVuSans-30"/>
      </g>
     </g>
    </g>
   </g>
   <g id="matplotlib.axis_2">
    <g id="ytick_1">
     <g id="line2d_3">
      <defs>
       <path d="M 0 0 
L -3.5 0 
" id="m2b1371f3a1" style="stroke:#000000;stroke-width:0.8;"/>
      </defs>
      <g>
       <use style="stroke:#000000;stroke-width:0.8;" x="54" xlink:href="#m2b1371f3a1" y="220.152727"/>
      </g>
     </g>
     <g id="text_3">
      <!-- 2 -->
      <g transform="translate(40.6375 223.951946)scale(0.1 -0.1)">
       <use xlink:href="#DejaVuSans-32"/>
      </g>
     </g>
    </g>
    <g id="ytick_2">
     <g id="line2d_4">
      <g>
       <use style="stroke:#000000;stroke-width:0.8;" x="54" xlink:href="#m2b1371f3a1" y="176.225455"/>
      </g>
     </g>
     <g id="text_4">
      <!-- 4 -->
      <g transform="translate(40.6375 180.024673)scale(0.1 -0.1)">
       <use xlink:href="#DejaVuSans-34"/>
      </g>
     </g>
    </g>
    <g id="ytick_3">
     <g id="line2d_5">
      <g>
       <use style="stroke:#000000;stroke-width:0.8;" x="54" xlink:href="#m2b1371f3a1" y="132.298182"/>
      </g>
     </g>
     <g id="text_5">
      <!-- 6 -->
      <g transform="translate(40.6375 136.097401)scale(0.1 -0.1)">
       <defs>
        <path d="M 2113 2584 
Q 1688 2584 1439 2293 
Q 1191 2003 1191 1497 
Q 1191 994 1439 701 
Q 1688 409 2113 409 
Q 2538 409 2786 701 
Q 3034 994 3034 1497 
Q 3034 2003 2786 2293 
Q 2538 2584 2113 2584 
z
M 3366 4563 
L 3366 3988 
Q 3128 4100 2886 4159 
Q 2644 4219 2406 4219 
Q 1781 4219 1451 3797 
Q 1122 3375 1075 2522 
Q 1259 2794 1537 2939 
Q 1816 3084 2150 3084 
Q 2853 3084 3261 2657 
Q 3669 2231 3669 1497 
Q 3669 778 3244 343 
Q 2819 -91 2113 -91 
Q 1303 -91 875 529 
Q 447 1150 447 2328 
Q 447 3434 972 4092 
Q 1497 4750 2381 4750 
Q 2619 4750 2861 4703 
Q 3103 4656 3366 4563 
z
" id="DejaVuSans-36" transform="scale(0.015625)"/>
       </defs>
       <use xlink:href="#DejaVuSans-36"/>
      </g>
     </g>
    </g>
    <g id="ytick_4">
     <g id="line2d_6">
      <g>
       <use style="stroke:#000000;stroke-width:0.8;" x="54" xlink:href="#m2b1371f3a1" y="88.370909"/>
      </g>
     </g>
     <g id="text_6">
      <!-- 8 -->
      <g transform="translate(40.6375 92.170128)scale(0.1 -0.1)">
       <defs>
        <path d="M 2034 2216 
Q 1584 2216 1326 1975 
Q 1069 1734 1069 1313 
Q 1069 891 1326 650 
Q 1584 409 2034 409 
Q 2484 409 2743 651 
Q 3003 894 3003 1313 
Q 3003 1734 2745 1975 
Q 2488 2216 2034 2216 
z
M 1403 2484 
Q 997 2584 770 2862 
Q 544 3141 544 3541 
Q 544 4100 942 4425 
Q 1341 4750 2034 4750 
Q 2731 4750 3128 4425 
Q 3525 4100 3525 3541 
Q 3525 3141 3298 2862 
Q 3072 2584 2669 2484 
Q 3125 2378 3379 2068 
Q 3634 1759 3634 1313 
Q 3634 634 3220 271 
Q 2806 -91 2034 -91 
Q 1263 -91 848 271 
Q 434 634 434 1313 
Q 434 1759 690 2068 
Q 947 2378 1403 2484 
z
M 1172 3481 
Q 1172 3119 1398 2916 
Q 1625 2713 2034 2713 
Q 2441 2713 2670 2916 
Q 2900 3119 2900 3481 
Q 2900 3844 2670 4047 
Q 2441 4250 2034 4250 
Q 1625 4250 1398 4047 
Q 1172 3844 1172 3481 
z
" id="DejaVuSans-38" transform="scale(0.015625)"/>
       </defs>
       <use xlink:href="#DejaVuSans-38"/>
      </g>
     </g>
    </g>
    <g id="ytick_5">
     <g id="line2d_7">
      <g>
       <use style="stroke:#000000;stroke-width:0.8;" x="54" xlink:href="#m2b1371f3a1" y="44.443636"/>
      </g>
     </g>
     <g id="text_7">
      <!-- 10 -->
      <g transform="translate(34.275 48.242855)scale(0.1 -0.1)">
       <defs>
        <path d="M 794 531 
L 1825 531 
L 1825 4091 
L 703 3866 
L 703 4441 
L 1819 4666 
L 2450 4666 
L 2450 531 
L 3481 531 
L 3481 0 
L 794 0 
L 794 531 
z
" id="DejaVuSans-31" transform="scale(0.015625)"/>
       </defs>
       <use xlink:href="#DejaVuSans-31"/>
       <use x="63.623047" xlink:href="#DejaVuSans-30"/>
      </g>
     </g>
    </g>
   </g>
   <g id="patch_3">
    <path d="M 54 252 
L 54 34.56 
" style="fill:none;stroke:#000000;stroke-linecap:square;stroke-linejoin:miter;stroke-width:0.8;"/>
   </g>
   <g id="patch_4">
    <path d="M 206.181818 252 
L 206.181818 34.56 
" style="fill:none;stroke:#000000;stroke-linecap:square;stroke-linejoin:miter;stroke-width:0.8;"/>
   </g>
   <g id="patch_5">
    <path d="M 54 252 
L 206.181818 252 
" style="fill:none;stroke:#000000;stroke-linecap:square;stroke-linejoin:miter;stroke-width:0.8;"/>
   </g>
   <g id="patch_6">
    <path d="M 54 34.56 
L 206.181818 34.56 
" style="fill:none;stroke:#000000;stroke-linecap:square;stroke-linejoin:miter;stroke-width:0.8;"/>
   </g>
  </g>
  <g id="axes_2">
   <g id="patch_7">
    <path d="M 236.618182 252 
L 388.8 252 
L 388.8 34.56 
L 236.618182 34.56 
z
" style="fill:#ffffff;"/>
   </g>
   <g id="patch_8">
    <path clip-path="url(#pba6ea6e665)" d="M 244.227273 252 
L 305.1 252 
L 305.1 44.914286 
L 244.227273 44.914286 
z
" style="fill:#3274a1;"/>
   </g>
   <g id="patch_9">
    <path clip-path="url(#pba6ea6e665)" d="M 320.318182 252 
L 381.190909 252 
L 381.190909 137.245496 
L 320.318182 137.245496 
z
" style="fill:#e1812c;"/>
   </g>
   <g id="matplotlib.axis_3">
    <g id="xtick_3">
     <g id="line2d_8">
      <g>
       <use style="stroke:#000000;stroke-width:0.8;" x="274.663636" xlink:href="#m033040539b" y="252"/>
      </g>
     </g>
     <g id="text_8">
      <!-- Male -->
      <g transform="translate(262.819886 266.598437)scale(0.1 -0.1)">
       <defs>
        <path d="M 628 4666 
L 1569 4666 
L 2759 1491 
L 3956 4666 
L 4897 4666 
L 4897 0 
L 4281 0 
L 4281 4097 
L 3078 897 
L 2444 897 
L 1241 4097 
L 1241 0 
L 628 0 
L 628 4666 
z
" id="DejaVuSans-4d" transform="scale(0.015625)"/>
        <path d="M 2194 1759 
Q 1497 1759 1228 1600 
Q 959 1441 959 1056 
Q 959 750 1161 570 
Q 1363 391 1709 391 
Q 2188 391 2477 730 
Q 2766 1069 2766 1631 
L 2766 1759 
L 2194 1759 
z
M 3341 1997 
L 3341 0 
L 2766 0 
L 2766 531 
Q 2569 213 2275 61 
Q 1981 -91 1556 -91 
Q 1019 -91 701 211 
Q 384 513 384 1019 
Q 384 1609 779 1909 
Q 1175 2209 1959 2209 
L 2766 2209 
L 2766 2266 
Q 2766 2663 2505 2880 
Q 2244 3097 1772 3097 
Q 1472 3097 1187 3025 
Q 903 2953 641 2809 
L 641 3341 
Q 956 3463 1253 3523 
Q 1550 3584 1831 3584 
Q 2591 3584 2966 3190 
Q 3341 2797 3341 1997 
z
" id="DejaVuSans-61" transform="scale(0.015625)"/>
        <path d="M 603 4863 
L 1178 4863 
L 1178 0 
L 603 0 
L 603 4863 
z
" id="DejaVuSans-6c" transform="scale(0.015625)"/>
        <path d="M 3597 1894 
L 3597 1613 
L 953 1613 
Q 991 1019 1311 708 
Q 1631 397 2203 397 
Q 2534 397 2845 478 
Q 3156 559 3463 722 
L 3463 178 
Q 3153 47 2828 -22 
Q 2503 -91 2169 -91 
Q 1331 -91 842 396 
Q 353 884 353 1716 
Q 353 2575 817 3079 
Q 1281 3584 2069 3584 
Q 2775 3584 3186 3129 
Q 3597 2675 3597 1894 
z
M 3022 2063 
Q 3016 2534 2758 2815 
Q 2500 3097 2075 3097 
Q 1594 3097 1305 2825 
Q 1016 2553 972 2059 
L 3022 2063 
z
" id="DejaVuSans-65" transform="scale(0.015625)"/>
       </defs>
       <use xlink:href="#DejaVuSans-4d"/>
       <use x="86.279297" xlink:href="#DejaVuSans-61"/>
       <use x="147.558594" xlink:href="#DejaVuSans-6c"/>
       <use x="175.341797" xlink:href="#DejaVuSans-65"/>
      </g>
     </g>
    </g>
    <g id="xtick_4">
     <g id="line2d_9">
      <g>
       <use style="stroke:#000000;stroke-width:0.8;" x="350.754545" xlink:href="#m033040539b" y="252"/>
      </g>
     </g>
     <g id="text_9">
      <!-- Female -->
      <g transform="translate(332.677202 266.598437)scale(0.1 -0.1)">
       <defs>
        <path d="M 628 4666 
L 3309 4666 
L 3309 4134 
L 1259 4134 
L 1259 2759 
L 3109 2759 
L 3109 2228 
L 1259 2228 
L 1259 0 
L 628 0 
L 628 4666 
z
" id="DejaVuSans-46" transform="scale(0.015625)"/>
        <path d="M 3328 2828 
Q 3544 3216 3844 3400 
Q 4144 3584 4550 3584 
Q 5097 3584 5394 3201 
Q 5691 2819 5691 2113 
L 5691 0 
L 5113 0 
L 5113 2094 
Q 5113 2597 4934 2840 
Q 4756 3084 4391 3084 
Q 3944 3084 3684 2787 
Q 3425 2491 3425 1978 
L 3425 0 
L 2847 0 
L 2847 2094 
Q 2847 2600 2669 2842 
Q 2491 3084 2119 3084 
Q 1678 3084 1418 2786 
Q 1159 2488 1159 1978 
L 1159 0 
L 581 0 
L 581 3500 
L 1159 3500 
L 1159 2956 
Q 1356 3278 1631 3431 
Q 1906 3584 2284 3584 
Q 2666 3584 2933 3390 
Q 3200 3197 3328 2828 
z
" id="DejaVuSans-6d" transform="scale(0.015625)"/>
       </defs>
       <use xlink:href="#DejaVuSans-46"/>
       <use x="52.019531" xlink:href="#DejaVuSans-65"/>
       <use x="113.542969" xlink:href="#DejaVuSans-6d"/>
       <use x="210.955078" xlink:href="#DejaVuSans-61"/>
       <use x="272.234375" xlink:href="#DejaVuSans-6c"/>
       <use x="300.017578" xlink:href="#DejaVuSans-65"/>
      </g>
     </g>
    </g>
    <g id="text_10">
     <!-- sex -->
     <g transform="translate(304.155966 280.276563)scale(0.1 -0.1)">
      <defs>
       <path d="M 2834 3397 
L 2834 2853 
Q 2591 2978 2328 3040 
Q 2066 3103 1784 3103 
Q 1356 3103 1142 2972 
Q 928 2841 928 2578 
Q 928 2378 1081 2264 
Q 1234 2150 1697 2047 
L 1894 2003 
Q 2506 1872 2764 1633 
Q 3022 1394 3022 966 
Q 3022 478 2636 193 
Q 2250 -91 1575 -91 
Q 1294 -91 989 -36 
Q 684 19 347 128 
L 347 722 
Q 666 556 975 473 
Q 1284 391 1588 391 
Q 1994 391 2212 530 
Q 2431 669 2431 922 
Q 2431 1156 2273 1281 
Q 2116 1406 1581 1522 
L 1381 1569 
Q 847 1681 609 1914 
Q 372 2147 372 2553 
Q 372 3047 722 3315 
Q 1072 3584 1716 3584 
Q 2034 3584 2315 3537 
Q 2597 3491 2834 3397 
z
" id="DejaVuSans-73" transform="scale(0.015625)"/>
       <path d="M 3513 3500 
L 2247 1797 
L 3578 0 
L 2900 0 
L 1881 1375 
L 863 0 
L 184 0 
L 1544 1831 
L 300 3500 
L 978 3500 
L 1906 2253 
L 2834 3500 
L 3513 3500 
z
" id="DejaVuSans-78" transform="scale(0.015625)"/>
      </defs>
      <use xlink:href="#DejaVuSans-73"/>
      <use x="52.099609" xlink:href="#DejaVuSans-65"/>
      <use x="111.873047" xlink:href="#DejaVuSans-78"/>
     </g>
    </g>
   </g>
   <g id="matplotlib.axis_4">
    <g id="ytick_6">
     <g id="line2d_10">
      <g>
       <use style="stroke:#000000;stroke-width:0.8;" x="236.618182" xlink:href="#m2b1371f3a1" y="252"/>
      </g>
     </g>
     <g id="text_11">
      <!-- 0 -->
      <g transform="translate(223.255682 255.799219)scale(0.1 -0.1)">
       <use xlink:href="#DejaVuSans-30"/>
      </g>
     </g>
    </g>
    <g id="ytick_7">
     <g id="line2d_11">
      <g>
       <use style="stroke:#000000;stroke-width:0.8;" x="236.618182" xlink:href="#m2b1371f3a1" y="225.619654"/>
      </g>
     </g>
     <g id="text_12">
      <!-- 20 -->
      <g transform="translate(216.893182 229.418873)scale(0.1 -0.1)">
       <use xlink:href="#DejaVuSans-32"/>
       <use x="63.623047" xlink:href="#DejaVuSans-30"/>
      </g>
     </g>
    </g>
    <g id="ytick_8">
     <g id="line2d_12">
      <g>
       <use style="stroke:#000000;stroke-width:0.8;" x="236.618182" xlink:href="#m2b1371f3a1" y="199.239308"/>
      </g>
     </g>
     <g id="text_13">
      <!-- 40 -->
      <g transform="translate(216.893182 203.038527)scale(0.1 -0.1)">
       <use xlink:href="#DejaVuSans-34"/>
       <use x="63.623047" xlink:href="#DejaVuSans-30"/>
      </g>
     </g>
    </g>
    <g id="ytick_9">
     <g id="line2d_13">
      <g>
       <use style="stroke:#000000;stroke-width:0.8;" x="236.618182" xlink:href="#m2b1371f3a1" y="172.858963"/>
      </g>
     </g>
     <g id="text_14">
      <!-- 60 -->
      <g transform="translate(216.893182 176.658181)scale(0.1 -0.1)">
       <use xlink:href="#DejaVuSans-36"/>
       <use x="63.623047" xlink:href="#DejaVuSans-30"/>
      </g>
     </g>
    </g>
    <g id="ytick_10">
     <g id="line2d_14">
      <g>
       <use style="stroke:#000000;stroke-width:0.8;" x="236.618182" xlink:href="#m2b1371f3a1" y="146.478617"/>
      </g>
     </g>
     <g id="text_15">
      <!-- 80 -->
      <g transform="translate(216.893182 150.277836)scale(0.1 -0.1)">
       <use xlink:href="#DejaVuSans-38"/>
       <use x="63.623047" xlink:href="#DejaVuSans-30"/>
      </g>
     </g>
    </g>
    <g id="ytick_11">
     <g id="line2d_15">
      <g>
       <use style="stroke:#000000;stroke-width:0.8;" x="236.618182" xlink:href="#m2b1371f3a1" y="120.098271"/>
      </g>
     </g>
     <g id="text_16">
      <!-- 100 -->
      <g transform="translate(210.530682 123.89749)scale(0.1 -0.1)">
       <use xlink:href="#DejaVuSans-31"/>
       <use x="63.623047" xlink:href="#DejaVuSans-30"/>
       <use x="127.246094" xlink:href="#DejaVuSans-30"/>
      </g>
     </g>
    </g>
    <g id="ytick_12">
     <g id="line2d_16">
      <g>
       <use style="stroke:#000000;stroke-width:0.8;" x="236.618182" xlink:href="#m2b1371f3a1" y="93.717925"/>
      </g>
     </g>
     <g id="text_17">
      <!-- 120 -->
      <g transform="translate(210.530682 97.517144)scale(0.1 -0.1)">
       <use xlink:href="#DejaVuSans-31"/>
       <use x="63.623047" xlink:href="#DejaVuSans-32"/>
       <use x="127.246094" xlink:href="#DejaVuSans-30"/>
      </g>
     </g>
    </g>
    <g id="ytick_13">
     <g id="line2d_17">
      <g>
       <use style="stroke:#000000;stroke-width:0.8;" x="236.618182" xlink:href="#m2b1371f3a1" y="67.33758"/>
      </g>
     </g>
     <g id="text_18">
      <!-- 140 -->
      <g transform="translate(210.530682 71.136798)scale(0.1 -0.1)">
       <use xlink:href="#DejaVuSans-31"/>
       <use x="63.623047" xlink:href="#DejaVuSans-34"/>
       <use x="127.246094" xlink:href="#DejaVuSans-30"/>
      </g>
     </g>
    </g>
    <g id="ytick_14">
     <g id="line2d_18">
      <g>
       <use style="stroke:#000000;stroke-width:0.8;" x="236.618182" xlink:href="#m2b1371f3a1" y="40.957234"/>
      </g>
     </g>
     <g id="text_19">
      <!-- 160 -->
      <g transform="translate(210.530682 44.756453)scale(0.1 -0.1)">
       <use xlink:href="#DejaVuSans-31"/>
       <use x="63.623047" xlink:href="#DejaVuSans-36"/>
       <use x="127.246094" xlink:href="#DejaVuSans-30"/>
      </g>
     </g>
    </g>
    <g id="text_20">
     <!-- count -->
     <g transform="translate(204.450994 157.38625)rotate(-90)scale(0.1 -0.1)">
      <defs>
       <path d="M 3122 3366 
L 3122 2828 
Q 2878 2963 2633 3030 
Q 2388 3097 2138 3097 
Q 1578 3097 1268 2742 
Q 959 2388 959 1747 
Q 959 1106 1268 751 
Q 1578 397 2138 397 
Q 2388 397 2633 464 
Q 2878 531 3122 666 
L 3122 134 
Q 2881 22 2623 -34 
Q 2366 -91 2075 -91 
Q 1284 -91 818 406 
Q 353 903 353 1747 
Q 353 2603 823 3093 
Q 1294 3584 2113 3584 
Q 2378 3584 2631 3529 
Q 2884 3475 3122 3366 
z
" id="DejaVuSans-63" transform="scale(0.015625)"/>
       <path d="M 1959 3097 
Q 1497 3097 1228 2736 
Q 959 2375 959 1747 
Q 959 1119 1226 758 
Q 1494 397 1959 397 
Q 2419 397 2687 759 
Q 2956 1122 2956 1747 
Q 2956 2369 2687 2733 
Q 2419 3097 1959 3097 
z
M 1959 3584 
Q 2709 3584 3137 3096 
Q 3566 2609 3566 1747 
Q 3566 888 3137 398 
Q 2709 -91 1959 -91 
Q 1206 -91 779 398 
Q 353 888 353 1747 
Q 353 2609 779 3096 
Q 1206 3584 1959 3584 
z
" id="DejaVuSans-6f" transform="scale(0.015625)"/>
       <path d="M 544 1381 
L 544 3500 
L 1119 3500 
L 1119 1403 
Q 1119 906 1312 657 
Q 1506 409 1894 409 
Q 2359 409 2629 706 
Q 2900 1003 2900 1516 
L 2900 3500 
L 3475 3500 
L 3475 0 
L 2900 0 
L 2900 538 
Q 2691 219 2414 64 
Q 2138 -91 1772 -91 
Q 1169 -91 856 284 
Q 544 659 544 1381 
z
M 1991 3584 
L 1991 3584 
z
" id="DejaVuSans-75" transform="scale(0.015625)"/>
       <path d="M 3513 2113 
L 3513 0 
L 2938 0 
L 2938 2094 
Q 2938 2591 2744 2837 
Q 2550 3084 2163 3084 
Q 1697 3084 1428 2787 
Q 1159 2491 1159 1978 
L 1159 0 
L 581 0 
L 581 3500 
L 1159 3500 
L 1159 2956 
Q 1366 3272 1645 3428 
Q 1925 3584 2291 3584 
Q 2894 3584 3203 3211 
Q 3513 2838 3513 2113 
z
" id="DejaVuSans-6e" transform="scale(0.015625)"/>
       <path d="M 1172 4494 
L 1172 3500 
L 2356 3500 
L 2356 3053 
L 1172 3053 
L 1172 1153 
Q 1172 725 1289 603 
Q 1406 481 1766 481 
L 2356 481 
L 2356 0 
L 1766 0 
Q 1100 0 847 248 
Q 594 497 594 1153 
L 594 3053 
L 172 3053 
L 172 3500 
L 594 3500 
L 594 4494 
L 1172 4494 
z
" id="DejaVuSans-74" transform="scale(0.015625)"/>
      </defs>
      <use xlink:href="#DejaVuSans-63"/>
      <use x="54.980469" xlink:href="#DejaVuSans-6f"/>
      <use x="116.162109" xlink:href="#DejaVuSans-75"/>
      <use x="179.541016" xlink:href="#DejaVuSans-6e"/>
      <use x="242.919922" xlink:href="#DejaVuSans-74"/>
     </g>
    </g>
   </g>
   <g id="patch_10">
    <path d="M 236.618182 252 
L 236.618182 34.56 
" style="fill:none;stroke:#000000;stroke-linecap:square;stroke-linejoin:miter;stroke-width:0.8;"/>
   </g>
   <g id="patch_11">
    <path d="M 388.8 252 
L 388.8 34.56 
" style="fill:none;stroke:#000000;stroke-linecap:square;stroke-linejoin:miter;stroke-width:0.8;"/>
   </g>
   <g id="patch_12">
    <path d="M 236.618182 252 
L 388.8 252 
" style="fill:none;stroke:#000000;stroke-linecap:square;stroke-linejoin:miter;stroke-width:0.8;"/>
   </g>
   <g id="patch_13">
    <path d="M 236.618182 34.56 
L 388.8 34.56 
" style="fill:none;stroke:#000000;stroke-linecap:square;stroke-linejoin:miter;stroke-width:0.8;"/>
   </g>
  </g>
 </g>
 <defs>
  <clipPath id="p9b76ecbe89">
   <rect height="217.44" width="152.181818" x="54" y="34.56"/>
  </clipPath>
  <clipPath id="pba6ea6e665">
   <rect height="217.44" width="152.181818" x="236.618182" y="34.56"/>
  </clipPath>
 </defs>
</svg>
